<svg width="585" height="604" viewBox="0 0 585 604" fill="none" xmlns="http://www.w3.org/2000/svg">
<path d="M405.075 140.349C397.838 141.093 384.783 143.664 377.681 145.693C367.399 148.669 358.335 152.051 357.929 153.066C357.794 153.539 358.403 155.771 359.35 158.071C363.814 169.164 365.505 184.045 363.205 192.297C359.012 207.246 346.228 215.769 331.008 213.672C321.539 212.319 312.137 208.261 303.276 201.632C300.705 199.67 298.405 198.047 298.135 198.047C297.526 198.047 289.003 209.613 285.013 215.972C281.022 222.33 272.905 238.361 272.161 241.337C271.823 242.893 272.161 243.163 276.422 244.922C289.477 250.266 301.314 261.088 305.711 271.775C307.875 277.051 307.875 286.859 305.778 291.662C300.096 304.176 285.621 313.172 266.817 315.81L261 316.621L261.406 320.071C262.894 332.923 266.682 348.683 271.078 360.047C274.055 367.758 273.649 367.42 278.316 365.526C286.298 362.279 293.265 360.859 301.585 360.859C316.939 360.791 327.085 366.135 332.226 377.16C337.705 388.862 333.985 406.449 323.027 420.856C321.133 423.426 319.239 425.997 318.833 426.47C318.292 427.214 318.833 428.026 320.862 429.785C328.37 436.346 347.986 447.912 359.485 452.58L363.611 454.271L365.911 449.13C371.255 436.955 380.657 426.064 389.585 421.668C402.031 415.58 412.719 417.406 422.662 427.282C429.696 434.317 435.446 447.371 436.596 458.87C436.866 461.17 437.272 463.47 437.543 463.943C438.016 464.62 439.775 464.552 446.742 463.605C457.632 462.049 468.928 459.344 478.804 455.759C483.065 454.203 487.124 452.783 487.8 452.58C488.476 452.377 488.882 451.836 488.679 451.43C480.63 433.37 479.413 417.88 485.162 405.907C494.496 386.495 519.591 385.074 542.995 402.728C545.768 404.758 548.203 406.246 548.474 405.907C554.359 399.279 563.625 384.736 569.172 373.44C574.921 361.806 574.921 361.467 569.916 359.303C558.147 354.297 545.904 343.813 541.777 335.223C536.704 324.535 537.584 314.93 544.415 305.867C551.247 296.803 565.993 289.565 580.468 288.212C584.256 287.874 585 287.603 585 286.521C585 284.221 582.971 271.775 581.618 265.62C579.115 254.324 573.095 237.279 571.607 237.279C571.269 237.279 569.51 237.887 567.819 238.699C561.393 241.472 551.991 243.434 544.415 243.434C529.196 243.434 519.05 237.887 513.909 226.794C508.16 214.619 512.218 197.979 524.935 181.407L528.182 177.146L521.418 172.073C517.697 169.299 511.745 165.241 508.16 163.144C500.584 158.68 485.703 151.442 483.606 151.239C482.389 151.036 481.78 151.781 480.157 155.636C474.881 167.879 465.478 178.634 455.941 183.369C450.259 186.142 449.989 186.21 443.292 186.21C436.866 186.21 436.19 186.074 431.929 183.91C426.653 181.204 420.091 174.711 416.777 168.894C413.801 163.618 410.757 154.621 409.81 148.331C408.728 140.89 408.525 139.876 407.916 140.011C407.646 140.011 406.36 140.214 405.075 140.349ZM438.896 206.502C468.793 211.44 495.443 230.92 509.377 257.977C513.03 265.079 516.75 275.293 518.441 283.274C520.2 291.391 520.268 312.969 518.509 321.153C513.436 344.963 500.043 365.932 480.901 380.339C470.349 388.321 455.062 395.085 441.263 397.993C432.808 399.752 413.26 399.82 405.075 398.061C384.445 393.664 367.061 384.127 352.992 369.381C339.802 355.65 331.752 340.296 327.559 321.153C325.732 313.036 325.732 292.203 327.491 283.951C333.985 253.445 352.653 229.026 380.048 215.295C398.176 206.231 418.468 203.188 438.896 206.502Z" fill="#75B9AD"/>
<path d="M414.207 217.392C381.672 220.977 353.601 242.96 342.575 273.669C336.488 290.714 336.217 311.548 341.899 329.067C345.957 341.58 352.857 352.809 362.462 362.414C379.101 379.121 399.326 387.441 423 387.441C445.187 387.441 464.397 380.136 480.428 365.661C498.217 349.562 508.025 327.443 508.093 303.228C508.228 288.347 505.793 277.66 499.502 264.673C488.206 241.607 467.305 224.967 442.346 219.286C435.243 217.662 420.701 216.715 414.207 217.392ZM431.794 228.552C448.501 230.582 463.044 237.684 475.152 249.724C491.318 265.823 499.435 287.738 497.067 309.316C493.482 342.798 469.064 369.516 436.393 375.671C427.465 377.295 412.313 376.686 403.79 374.319C376.058 366.54 355.157 343.948 349.881 315.944C348.595 308.977 348.46 296.396 349.61 290.038C351.436 279.96 356.036 268.799 361.921 260.005C366.047 253.918 375.516 244.719 382.281 240.322C397.567 230.379 414.275 226.388 431.794 228.552Z" fill="#75B9AD"/>
<path d="M242 434C242 485.441 203.11 526 156.5 526C109.89 526 71 485.441 71 434C71 382.559 109.89 342 156.5 342C203.11 342 242 382.559 242 434Z" stroke="#75B9AD" stroke-width="20"/>
<path d="M144.075 272.349C136.838 273.093 123.783 275.664 116.681 277.693C106.399 280.669 97.3353 284.051 96.9294 285.066C96.7942 285.539 97.4029 287.771 98.3499 290.071C102.814 301.164 104.505 316.045 102.205 324.297C98.0117 339.246 85.2276 347.769 70.0083 345.672C60.5386 344.319 51.1365 340.261 42.2756 333.632C39.7052 331.67 37.4054 330.047 37.1349 330.047C36.5261 330.047 28.0033 341.613 24.0125 347.972C20.0217 354.33 11.9048 370.361 11.1608 373.337C10.8225 374.893 11.1608 375.163 15.4221 376.922C28.4768 382.266 40.314 393.088 44.7106 403.775C46.8752 409.051 46.8752 418.859 44.7783 423.662C39.0965 436.176 24.6213 445.172 5.81712 447.81L0 448.621L0.405845 452.071C1.89395 464.923 5.68184 480.683 10.0785 492.047C13.0547 499.758 12.6489 499.42 17.3161 497.526C25.2977 494.279 32.2647 492.859 40.5845 492.859C55.939 492.791 66.0852 498.135 71.2259 509.16C76.7048 520.862 72.9846 538.449 62.0267 552.856C60.1328 555.426 58.2388 557.997 57.833 558.47C57.2919 559.214 57.833 560.026 59.8622 561.785C67.3704 568.346 86.9862 579.912 98.4852 584.58L102.611 586.271L104.911 581.13C110.255 568.955 119.657 558.064 128.585 553.668C141.031 547.58 151.719 549.406 161.662 559.282C168.696 566.317 174.446 579.371 175.596 590.87C175.866 593.17 176.272 595.47 176.543 595.943C177.016 596.62 178.775 596.552 185.742 595.605C196.632 594.049 207.928 591.344 217.804 587.759C222.065 586.203 226.124 584.783 226.8 584.58C227.476 584.377 227.882 583.836 227.679 583.43C219.63 565.37 218.413 549.88 224.162 537.907C233.496 518.495 258.591 517.074 281.995 534.728C284.768 536.758 287.203 538.246 287.474 537.907C293.359 531.279 302.625 516.736 308.172 505.44C313.921 493.806 313.921 493.467 308.916 491.303C297.147 486.297 284.904 475.813 280.777 467.223C275.704 456.535 276.584 446.93 283.415 437.867C290.247 428.803 304.993 421.565 319.468 420.212C323.256 419.874 324 419.603 324 418.521C324 416.221 321.971 403.775 320.618 397.62C318.115 386.324 312.095 369.279 310.607 369.279C310.269 369.279 308.51 369.887 306.819 370.699C300.393 373.472 290.991 375.434 283.415 375.434C268.196 375.434 258.05 369.887 252.909 358.794C247.16 346.619 251.218 329.979 263.935 313.407L267.182 309.146L260.418 304.073C256.697 301.299 250.745 297.241 247.16 295.144C239.584 290.68 224.703 283.442 222.606 283.239C221.389 283.036 220.78 283.781 219.157 287.636C213.881 299.879 204.478 310.634 194.941 315.369C189.259 318.142 188.989 318.21 182.292 318.21C175.866 318.21 175.19 318.074 170.929 315.91C165.653 313.204 159.091 306.711 155.777 300.894C152.801 295.618 149.757 286.621 148.81 280.331C147.728 272.89 147.525 271.876 146.916 272.011C146.646 272.011 145.36 272.214 144.075 272.349ZM177.896 338.502C207.793 343.44 234.443 362.92 248.377 389.977C252.03 397.079 255.75 407.293 257.441 415.274C259.2 423.391 259.268 444.969 257.509 453.153C252.436 476.963 239.043 497.932 219.901 512.339C209.349 520.321 194.062 527.085 180.263 529.993C171.808 531.752 152.26 531.82 144.075 530.061C123.445 525.664 106.061 516.127 91.9916 501.381C78.8017 487.65 70.7524 472.296 66.5587 453.153C64.7324 445.036 64.7324 424.203 66.491 415.951C72.9846 385.445 91.6534 361.026 119.048 347.295C137.176 338.231 157.468 335.188 177.896 338.502Z" fill="#75B9AD"/>
<path d="M149.054 0.252365C143.827 0.789734 134.399 2.6461 129.269 4.11165C121.844 6.26112 115.298 8.70372 115.005 9.43649C114.907 9.77846 115.347 11.3906 116.03 13.0515C119.255 21.0632 120.476 31.8106 118.815 37.7705C115.786 48.5668 106.553 54.7221 95.5616 53.2077C88.7223 52.2307 81.9319 49.2995 75.5324 44.5121C73.676 43.0954 72.015 41.9229 71.8196 41.9229C71.38 41.9229 65.2246 50.2766 62.3424 54.8687C59.4601 59.4607 53.5979 71.0386 53.0605 73.1881C52.8163 74.3117 53.0605 74.5071 56.1382 75.7772C65.5666 79.6365 74.1157 87.4528 77.291 95.1714C78.8543 98.9818 78.8543 106.065 77.3399 109.534C73.2363 118.571 62.782 125.069 49.2013 126.974L45 127.56L45.2931 130.052C46.3678 139.333 49.1035 150.716 52.2789 158.923C54.4284 164.492 54.1353 164.248 57.5061 162.88C63.2706 160.535 68.3023 159.509 74.3111 159.509C85.4004 159.46 92.7282 163.32 96.4409 171.282C100.398 179.734 97.7111 192.435 89.7971 202.841C88.4292 204.697 87.0614 206.553 86.7683 206.895C86.3775 207.433 86.7683 208.019 88.2338 209.289C93.6564 214.028 107.823 222.381 116.128 225.752L119.108 226.973L120.769 223.261C124.628 214.467 131.419 206.602 137.867 203.427C146.856 199.03 154.575 200.349 161.756 207.482C166.836 212.562 170.989 221.991 171.819 230.295C172.015 231.956 172.308 233.617 172.503 233.959C172.845 234.448 174.115 234.399 179.147 233.715C187.012 232.591 195.17 230.637 202.303 228.048C205.38 226.925 208.311 225.899 208.8 225.752C209.289 225.606 209.582 225.215 209.435 224.922C203.622 211.878 202.742 200.691 206.895 192.044C213.636 178.024 231.76 176.998 248.663 189.748C250.666 191.214 252.425 192.289 252.62 192.044C256.87 187.257 263.563 176.754 267.569 168.596C271.721 160.193 271.721 159.949 268.106 158.386C259.606 154.771 250.764 147.199 247.784 140.994C244.12 133.276 244.755 126.339 249.689 119.793C254.623 113.247 265.273 108.019 275.727 107.042C278.463 106.798 279 106.603 279 105.821C279 104.16 277.534 95.1714 276.557 90.7258C274.75 82.5676 270.402 70.257 269.327 70.257C269.083 70.257 267.813 70.6966 266.592 71.2828C261.951 73.2858 255.16 74.7025 249.689 74.7025C238.697 74.7025 231.37 70.6966 227.657 62.6849C223.504 53.8916 226.435 41.8741 235.62 29.9054L237.965 26.8277L233.079 23.1638C230.392 21.1609 226.094 18.2298 223.504 16.7154C218.033 13.4912 207.286 8.26405 205.771 8.11749C204.892 7.97095 204.452 8.50832 203.28 11.2929C199.469 20.135 192.679 27.9025 185.791 31.3221C181.687 33.325 181.492 33.3739 176.656 33.3739C172.015 33.3739 171.526 33.2762 168.448 31.7129C164.638 29.7588 159.899 25.0691 157.506 20.8678C155.356 17.0574 153.158 10.5601 152.474 6.01688C151.692 0.643173 151.546 -0.0895996 151.106 0.00810242C150.911 0.00810242 149.982 0.154663 149.054 0.252365ZM173.48 48.0294C195.073 51.5956 214.32 65.6649 224.384 85.2056C227.022 90.335 229.709 97.7117 230.93 103.476C232.2 109.338 232.249 124.922 230.979 130.833C227.315 148.029 217.642 163.173 203.817 173.578C196.196 179.343 185.156 184.228 175.19 186.329C169.084 187.599 154.965 187.648 149.054 186.378C134.154 183.202 121.6 176.314 111.438 165.664C101.912 155.748 96.099 144.658 93.0701 130.833C91.7511 124.971 91.7511 109.925 93.0213 103.965C97.7111 81.9325 111.194 64.297 130.979 54.3801C144.071 47.834 158.727 45.6357 173.48 48.0294Z" fill="#F9C499"/>
<path d="M155.65 55.8942C132.152 58.4833 111.878 74.3601 103.916 96.5388C99.5189 108.849 99.3234 123.896 103.427 136.548C106.358 145.586 111.341 153.695 118.278 160.632C130.295 172.699 144.902 178.708 162 178.708C178.024 178.708 191.898 173.432 203.475 162.977C216.323 151.351 223.407 135.376 223.456 117.887C223.554 107.14 221.795 99.4211 217.252 90.0415C209.093 73.3831 193.998 61.3656 175.972 57.262C170.842 56.0896 160.339 55.4056 155.65 55.8942ZM168.351 63.9547C180.417 65.4203 190.921 70.5497 199.665 79.2453C211.341 90.872 217.203 106.7 215.493 122.284C212.904 146.465 195.268 165.762 171.673 170.207C165.224 171.38 154.282 170.94 148.126 169.23C128.097 163.612 113.002 147.296 109.192 127.071C108.263 122.039 108.166 112.953 108.996 108.361C110.315 101.082 113.637 93.0215 117.887 86.6708C120.867 82.2741 127.706 75.6303 132.592 72.4549C143.632 65.2737 155.698 62.3914 168.351 63.9547Z" fill="#F9C499"/>
<rect x="136" y="60.0002" width="328.497" height="544" rx="63" fill="#75B9AD"/>
<rect x="152.308" y="77.4739" width="295.88" height="502.064" rx="46" fill="#F9C499"/>
<rect x="226.869" y="62.3303" width="147.94" height="37.2762" rx="18.6381" fill="#75B9AD"/>
<path d="M197.791 308.053C197.791 297.284 206.521 288.553 217.291 288.553H379.893C390.663 288.553 399.393 297.284 399.393 308.053V344.196C399.393 354.965 390.663 363.696 379.893 363.696H217.291C206.521 363.696 197.791 354.965 197.791 344.196V308.053Z" fill="#75B9AD"/>
<path d="M230.78 349.95L249.778 302.299H259.654L278.515 349.95H266.719L257.665 325.784C257.3 324.831 256.934 323.81 256.568 322.721C256.202 321.632 255.836 320.52 255.471 319.385C255.105 318.205 254.739 317.071 254.373 315.982C254.053 314.847 253.779 313.803 253.55 312.85L255.608 312.782C255.334 313.917 255.013 315.029 254.648 316.118C254.328 317.207 253.985 318.296 253.619 319.385C253.299 320.429 252.933 321.496 252.522 322.585C252.11 323.629 251.721 324.718 251.356 325.852L242.302 349.95H230.78ZM239.833 340.828L243.468 332.115H265.553L269.119 340.828H239.833Z" fill="white"/>
<path d="M284.505 349.95V302.299H305.218C308.236 302.299 310.911 302.98 313.242 304.341C315.62 305.703 317.495 307.563 318.866 309.923C320.284 312.283 320.993 314.938 320.993 317.888C320.993 320.974 320.284 323.742 318.866 326.193C317.495 328.598 315.62 330.504 313.242 331.911C310.911 333.318 308.236 334.021 305.218 334.021H296.165V349.95H284.505ZM295.959 323.878H303.572C304.578 323.878 305.492 323.629 306.315 323.129C307.138 322.63 307.801 321.949 308.304 321.087C308.807 320.225 309.059 319.226 309.059 318.092C309.059 316.912 308.807 315.914 308.304 315.097C307.801 314.28 307.138 313.644 306.315 313.191C305.492 312.737 304.578 312.51 303.572 312.51H295.959V323.878Z" fill="white"/>
<path d="M329.916 349.95V302.299H350.629C353.647 302.299 356.321 302.98 358.653 304.341C361.031 305.703 362.906 307.563 364.277 309.923C365.695 312.283 366.403 314.938 366.403 317.888C366.403 320.974 365.695 323.742 364.277 326.193C362.906 328.598 361.031 330.504 358.653 331.911C356.321 333.318 353.647 334.021 350.629 334.021H341.576V349.95H329.916ZM341.37 323.878H348.983C349.989 323.878 350.903 323.629 351.726 323.129C352.549 322.63 353.212 321.949 353.715 321.087C354.218 320.225 354.47 319.226 354.47 318.092C354.47 316.912 354.218 315.914 353.715 315.097C353.212 314.28 352.549 313.644 351.726 313.191C350.903 312.737 349.989 312.51 348.983 312.51H341.37V323.878Z" fill="white"/>
<path d="M203.289 446.169V376.525H232.155C237.213 376.525 241.843 377.387 246.047 379.112C250.25 380.77 253.863 383.158 256.884 386.275C259.971 389.393 262.336 393.074 263.978 397.319C265.62 401.564 266.441 406.24 266.441 411.347C266.441 416.454 265.62 421.164 263.978 425.475C262.336 429.72 259.971 433.401 256.884 436.519C253.863 439.57 250.25 441.957 246.047 443.682C241.843 445.34 237.213 446.169 232.155 446.169H203.289ZM220.037 434.628L217.771 431.246H231.663C234.421 431.246 236.884 430.781 239.052 429.853C241.219 428.858 243.058 427.498 244.569 425.773C246.145 424.049 247.36 421.96 248.214 419.505C249.068 417.051 249.495 414.332 249.495 411.347C249.495 408.362 249.068 405.643 248.214 403.189C247.36 400.735 246.145 398.645 244.569 396.921C243.058 395.196 241.219 393.87 239.052 392.941C236.884 391.946 234.421 391.449 231.663 391.449H217.476L220.037 388.265V434.628Z" fill="#75B9AD"/>
<path d="M279.392 446.169V376.525H327.47V390.951H295.648V431.743H328.456V446.169H279.392ZM287.274 417.615V403.885H323.037V417.615H287.274Z" fill="#75B9AD"/>
<path d="M362.202 446.169L334.616 376.525H352.054L365.355 412.044C366.143 414.1 366.8 415.891 367.325 417.416C367.916 418.942 368.409 420.368 368.803 421.694C369.263 423.021 369.657 424.381 369.985 425.773C370.379 427.1 370.806 428.626 371.266 430.35H368.212C368.737 428.095 369.263 426.105 369.788 424.381C370.313 422.59 370.905 420.766 371.561 418.909C372.218 416.985 373.039 414.697 374.024 412.044L386.832 376.525H403.975L376.192 446.169H362.202Z" fill="#75B9AD"/>
<path d="M294.572 195.779C292.877 195.953 289.821 196.555 288.159 197.03C285.752 197.727 283.63 198.518 283.535 198.756C283.504 198.867 283.646 199.389 283.868 199.928C284.913 202.524 285.309 206.008 284.77 207.94C283.789 211.439 280.796 213.434 277.233 212.943C275.017 212.627 272.816 211.677 270.741 210.125C270.14 209.666 269.601 209.286 269.538 209.286C269.395 209.286 267.4 211.993 266.466 213.482C265.532 214.97 263.632 218.723 263.458 219.419C263.378 219.784 263.458 219.847 264.455 220.259C267.511 221.51 270.282 224.043 271.311 226.545C271.818 227.78 271.818 230.076 271.327 231.2C269.997 234.129 266.609 236.235 262.207 236.853L260.845 237.043L260.94 237.85C261.288 240.859 262.175 244.548 263.204 247.208C263.901 249.013 263.806 248.934 264.899 248.491C266.767 247.731 268.398 247.398 270.345 247.398C273.94 247.383 276.315 248.633 277.518 251.214C278.801 253.954 277.93 258.071 275.365 261.443C274.922 262.045 274.478 262.647 274.383 262.757C274.256 262.932 274.383 263.122 274.858 263.533C276.616 265.069 281.208 267.777 283.899 268.869L284.865 269.265L285.404 268.062C286.655 265.212 288.856 262.662 290.946 261.633C293.859 260.208 296.361 260.636 298.689 262.947C300.335 264.594 301.681 267.65 301.95 270.342C302.014 270.88 302.109 271.419 302.172 271.53C302.283 271.688 302.695 271.672 304.326 271.45C306.875 271.086 309.519 270.453 311.831 269.614C312.828 269.249 313.779 268.917 313.937 268.869C314.095 268.822 314.19 268.695 314.143 268.6C312.258 264.373 311.973 260.747 313.319 257.944C315.504 253.4 321.379 253.067 326.858 257.2C327.507 257.675 328.077 258.023 328.14 257.944C329.518 256.392 331.687 252.988 332.985 250.344C334.331 247.62 334.331 247.541 333.16 247.034C330.404 245.862 327.538 243.408 326.573 241.397C325.385 238.895 325.591 236.647 327.19 234.525C328.789 232.403 332.241 230.709 335.63 230.392C336.516 230.313 336.691 230.25 336.691 229.997C336.691 229.458 336.216 226.545 335.899 225.104C335.313 222.46 333.904 218.469 333.555 218.469C333.476 218.469 333.065 218.612 332.669 218.802C331.164 219.451 328.964 219.91 327.19 219.91C323.627 219.91 321.252 218.612 320.049 216.015C318.703 213.165 319.653 209.27 322.63 205.39L323.39 204.393L321.806 203.205C320.936 202.556 319.542 201.606 318.703 201.115C316.93 200.07 313.446 198.376 312.955 198.328C312.67 198.281 312.528 198.455 312.148 199.358C310.913 202.224 308.712 204.741 306.479 205.85C305.149 206.499 305.086 206.515 303.518 206.515C302.014 206.515 301.855 206.483 300.858 205.976C299.623 205.343 298.087 203.823 297.311 202.461C296.614 201.226 295.902 199.12 295.68 197.647C295.427 195.906 295.379 195.668 295.237 195.7C295.173 195.7 294.873 195.747 294.572 195.779ZM302.489 211.265C309.487 212.421 315.726 216.981 318.988 223.315C319.843 224.977 320.714 227.368 321.11 229.237C321.521 231.137 321.537 236.188 321.126 238.104C319.938 243.677 316.803 248.586 312.322 251.959C309.852 253.827 306.273 255.41 303.043 256.091C301.064 256.503 296.488 256.519 294.572 256.107C289.742 255.078 285.673 252.845 282.379 249.393C279.292 246.179 277.407 242.585 276.426 238.104C275.998 236.204 275.998 231.327 276.41 229.395C277.93 222.254 282.3 216.538 288.713 213.323C292.957 211.201 297.707 210.489 302.489 211.265Z" fill="white"/>
<path d="M296.709 213.814C289.093 214.653 282.522 219.799 279.941 226.988C278.516 230.978 278.453 235.855 279.783 239.956C280.733 242.886 282.348 245.514 284.596 247.762C288.491 251.673 293.226 253.621 298.768 253.621C303.961 253.621 308.458 251.911 312.211 248.522C316.375 244.754 318.671 239.576 318.687 233.908C318.719 230.424 318.149 227.922 316.676 224.882C314.032 219.483 309.139 215.587 303.296 214.257C301.634 213.877 298.229 213.656 296.709 213.814ZM300.826 216.427C304.737 216.902 308.142 218.564 310.976 221.383C314.76 225.151 316.66 230.282 316.106 235.333C315.267 243.171 309.551 249.425 301.903 250.866C299.813 251.246 296.266 251.103 294.271 250.549C287.779 248.728 282.886 243.44 281.651 236.884C281.35 235.253 281.318 232.308 281.588 230.82C282.015 228.461 283.092 225.848 284.469 223.79C285.435 222.364 287.652 220.211 289.236 219.182C292.814 216.854 296.725 215.92 300.826 216.427Z" fill="white"/>
</svg>
