<svg width="641" height="515" viewBox="0 0 641 515" fill="none" xmlns="http://www.w3.org/2000/svg">
<circle cx="167.554" cy="274.03" r="97.6905" fill="#FFA45C"/>
<circle cx="474.243" cy="274.03" r="97.6905" fill="#FFA45C"/>
<path d="M127.706 142.638C119.346 143.868 112.871 145.835 104.92 149.687C95.4122 154.277 87.8716 159.687 81.0685 166.981C70.1673 178.456 66.233 186.325 59.8399 209.521C57.0531 219.356 53.9384 230.504 52.8729 234.356C51.8074 238.208 43.4471 268.207 34.349 301.157C-2.37084 434.512 -0.403702 426.398 0.25201 442.135C0.989686 460.659 8.28448 476.805 22.4643 491.559C42.6274 512.46 73.2 520.328 99.5104 511.312C112.707 506.804 121.395 501.313 131.476 491.395C142.296 480.576 147.787 471.97 156.803 451.561C159.672 445.003 165.819 430.988 170.491 420.332L178.934 400.989L190.491 400.497C199.179 400.169 203.769 399.595 209.014 398.038C222.866 394.104 236.063 386.153 245.652 375.908C250.816 370.416 256.472 362.22 258.767 357.056L260.16 354.023H320.485H380.811L382.204 357.22C388.188 370.744 402.613 385.006 417.941 392.628C428.842 398.038 436.956 400.005 450.48 400.497L461.955 400.989L469.25 417.464C473.184 426.48 478.676 438.938 481.299 445.003C492.61 470.986 497.938 479.756 509.003 490.821C527.527 509.427 547.362 515.984 571.705 511.722C594.163 507.788 618.343 493.772 628.916 478.363C638.588 464.347 643.342 440.086 639.817 423.119C638.178 415.496 619.162 345.417 604.983 295.009C603.179 288.452 595.967 262.633 589 237.552C580.639 207.472 575.476 190.177 573.672 186.735C562.935 165.342 544.575 150.425 521.707 144.523C510.478 141.655 496.216 141.491 486.053 144.113C476.463 146.654 463.922 151.654 456.218 156.08L449.743 159.769H320.322H190.982L187.048 157.31C167.95 145.589 145.492 140.015 127.706 142.638ZM504.495 190.423C512.527 193.784 517.199 200.751 517.199 209.275C517.117 215.75 515.232 220.012 510.232 224.356C503.757 230.012 496.052 231.077 488.43 227.143C478.266 222.061 474.332 210.095 479.414 200.095C481.381 196.243 487.036 191.161 490.561 190.177C494.413 189.03 501.38 189.194 504.495 190.423ZM162.049 196.98L164.344 198.947L164.59 216.242L164.836 233.454L181.966 233.7C204.342 234.028 202.785 232.717 203.113 251.158L203.359 264.683L200.9 267.141L198.523 269.6H181.638H164.836L164.59 286.895L164.344 304.189L162.049 306.156C159.836 308.042 159.344 308.123 146.23 308.123H132.706L130.739 305.992C128.69 303.779 128.69 303.697 128.69 286.731V269.6H112.297C95.1663 269.6 91.8878 269.027 90.6583 265.912C90.4124 265.174 90.1665 258.617 90.1665 251.322C90.2485 237.061 90.4944 235.913 94.5926 234.356C95.8221 233.864 103.691 233.536 112.789 233.536H128.69V216.652V199.767L131.067 197.39L133.444 195.013H146.64C159.344 195.013 159.836 195.095 162.049 196.98ZM356.959 219.274C359.828 220.422 360.648 224.028 360.648 235.995V247.634L358.189 250.011L355.812 252.47L322.944 252.224L289.995 251.978L288.438 250.011C287.044 248.29 286.88 246.65 286.88 235.339C286.88 223.373 286.962 222.471 288.683 220.668L290.405 218.783H323.026C340.976 218.783 356.222 219.029 356.959 219.274ZM474.578 221.815C481.709 224.684 486.381 231.979 486.381 240.093C486.381 258.781 464.086 267.305 451.464 253.372C444.661 245.831 444.661 234.356 451.464 226.815C457.529 220.094 465.972 218.291 474.578 221.815ZM535.313 221.406C545.805 224.93 551.296 237.962 546.624 248.29C543.018 256.24 537.034 260.093 528.264 260.093C519.494 260.093 513.511 256.24 509.904 248.29C505.478 238.454 510.068 226.487 520.068 221.979C523.838 220.258 531.133 219.93 535.313 221.406ZM506.38 253.126C513.265 256.732 517.445 263.535 517.363 271.24C517.363 282.469 508.757 291.075 497.692 291.075C481.299 291.239 471.709 273.453 480.807 259.847C486.217 251.732 497.774 248.7 506.38 253.126ZM358.271 271.977L360.648 274.354V285.993C360.648 297.96 359.828 301.566 356.959 302.714C356.222 302.96 340.976 303.206 323.108 303.206C290.896 303.206 290.651 303.206 288.765 301.402C286.962 299.681 286.88 299.189 286.88 287.059C286.88 273.863 287.372 271.649 290.405 270.42C291.388 270.01 306.552 269.682 324.01 269.682L355.894 269.6L358.271 271.977ZM205.982 306.238C212.211 309.025 218.85 316.156 221.309 322.631C224.751 331.811 223.194 343.122 217.539 350.991C207.949 364.187 188.933 366.974 175.491 357.22C165.164 349.761 160.901 334.762 165.491 322.713C168.852 314.025 178.278 305.91 187.048 304.025C192.458 302.878 200.572 303.861 205.982 306.238ZM460.398 306.484C470.889 311.648 477.283 321.811 477.201 333.532C477.201 350.335 464.168 363.121 447.284 362.957C430.235 362.793 417.859 350.171 417.859 332.959C417.859 325.336 420.318 319.189 425.563 313.369C434.825 303.288 448.267 300.665 460.398 306.484Z" fill="#5D5D5A"/>
<rect x="277.086" y="211.863" width="88.8095" height="43.8127" rx="14" fill="#FFA45C"/>
<rect x="277.086" y="266.333" width="88.8095" height="43.8127" rx="14" fill="#FFA45C"/>
<rect x="249" y="176" width="143" height="161" fill="#5D5D5A"/>
<path d="M228 283V215H256.48C261.47 215 266.038 215.842 270.186 217.526C274.333 219.145 277.897 221.476 280.878 224.52C283.924 227.564 286.256 231.158 287.877 235.303C289.497 239.448 290.307 244.013 290.307 249C290.307 253.987 289.497 258.585 287.877 262.794C286.256 266.939 283.924 270.533 280.878 273.577C277.897 276.556 274.333 278.888 270.186 280.571C266.038 282.19 261.47 283 256.48 283H228ZM244.524 271.731L242.289 268.429H255.994C258.716 268.429 261.146 267.975 263.284 267.069C265.423 266.097 267.237 264.77 268.728 263.086C270.283 261.402 271.482 259.362 272.324 256.966C273.167 254.57 273.588 251.914 273.588 249C273.588 246.086 273.167 243.43 272.324 241.034C271.482 238.638 270.283 236.598 268.728 234.914C267.237 233.23 265.423 231.935 263.284 231.029C261.146 230.057 258.716 229.571 255.994 229.571H241.997L244.524 226.463V271.731Z" fill="#FFF4E3"/>
<path d="M303.085 283V215H350.52V229.086H319.123V268.914H351.492V283H303.085ZM310.861 255.12V241.714H346.145V255.12H310.861Z" fill="#FFF4E3"/>
<path d="M384.786 283L357.57 215H374.774L387.897 249.68C388.674 251.688 389.322 253.436 389.841 254.926C390.424 256.415 390.91 257.808 391.299 259.103C391.752 260.398 392.141 261.726 392.465 263.086C392.854 264.381 393.275 265.87 393.729 267.554H390.716C391.234 265.352 391.752 263.41 392.271 261.726C392.789 259.977 393.372 258.196 394.021 256.383C394.669 254.505 395.479 252.27 396.451 249.68L409.087 215H426L398.589 283H384.786Z" fill="#FFF4E3"/>
<path d="M133.733 119C124.541 119 116.224 117.521 108.783 114.562C101.342 111.604 94.9404 107.44 89.5784 102.07C84.2164 96.7012 80.1129 90.4006 77.2677 83.1685C74.4226 75.8269 73 67.8826 73 59.3356C73 50.7887 74.4773 42.954 77.4319 35.8315C80.4959 28.5995 84.8183 22.2988 90.3992 16.9296C95.98 11.5603 102.546 7.39641 110.096 4.43785C117.756 1.47928 126.073 0 135.046 0C141.393 0 147.357 0.821822 152.938 2.46547C158.628 4.10912 163.771 6.35544 168.367 9.20442C172.963 12.0534 176.848 15.3407 180.021 19.0663L163.114 36.982C160.379 34.3522 157.534 32.1607 154.579 30.4075C151.734 28.6542 148.67 27.2845 145.387 26.2983C142.104 25.2026 138.602 24.6547 134.882 24.6547C130.067 24.6547 125.635 25.5313 121.586 27.2845C117.647 29.0378 114.145 31.5032 111.081 34.6809C108.127 37.7491 105.829 41.4199 104.187 45.6934C102.546 49.8573 101.725 54.4047 101.725 59.3356C101.725 64.2666 102.6 68.8688 104.351 73.1423C106.102 77.4157 108.51 81.1413 111.574 84.3191C114.638 87.3872 118.249 89.8527 122.407 91.7155C126.675 93.4687 131.216 94.3453 136.031 94.3453C139.423 94.3453 142.597 93.7974 145.551 92.7017C148.615 91.6059 151.241 90.1266 153.43 88.2638C155.619 86.401 157.369 84.2095 158.683 81.6892C159.996 79.0594 160.652 76.2652 160.652 73.3066V69.0332L164.263 74.6216H132.584V52.7611H186.587C186.806 53.9664 186.97 55.61 187.079 57.692C187.189 59.7739 187.244 61.8011 187.244 63.7735C187.353 65.7459 187.408 67.2251 187.408 68.2113C187.408 75.6625 186.04 82.5111 183.304 88.7569C180.678 94.8932 176.957 100.208 172.142 104.7C167.327 109.193 161.637 112.699 155.071 115.22C148.506 117.74 141.393 119 133.733 119Z" fill="#FFA45C"/>
<path d="M192.572 117.356L238.039 2.3011H261.676L306.815 117.356H278.583L256.916 59.0069C256.04 56.7058 255.165 54.2403 254.289 51.6105C253.414 48.9807 252.539 46.296 251.663 43.5566C250.788 40.7076 249.912 37.9682 249.037 35.3384C248.271 32.599 247.614 30.0787 247.067 27.7776L251.992 27.6133C251.335 30.3527 250.569 33.0373 249.693 35.6671C248.927 38.297 248.107 40.9268 247.231 43.5566C246.465 46.0769 245.59 48.6519 244.605 51.2818C243.62 53.802 242.69 56.4319 241.815 59.1713L220.148 117.356H192.572ZM214.239 95.3315L222.938 74.2928H275.792L284.328 95.3315H214.239Z" fill="#FFA45C"/>
<path d="M321.151 117.356V2.3011H346.101L387.957 70.5124L370.065 70.3481L412.414 2.3011H436.379V117.356H409.296V81.5249C409.296 71.663 409.514 62.7873 409.952 54.8978C410.499 47.0083 411.375 39.1736 412.578 31.3937L415.697 39.9406L383.853 89.4144H373.02L341.833 40.2693L344.952 31.3937C346.155 38.7353 346.976 46.296 347.414 54.076C347.961 61.7463 348.234 70.896 348.234 81.5249V117.356H321.151Z" fill="#FFA45C"/>
<path d="M465.257 117.356V2.3011H545.359V26.134H492.34V93.5235H547V117.356H465.257ZM478.388 70.1837V47.5014H537.972V70.1837H478.388Z" fill="#FFA45C"/>
<rect x="447" y="467.046" width="59.4619" height="15.416" transform="rotate(135 447 467.046)" fill="#FFA45C"/>
<rect x="436.099" y="477.947" width="59.4619" height="15.416" transform="rotate(-135 436.099 477.947)" fill="#5D5D5A"/>
<rect width="59.4619" height="15.416" transform="matrix(0.707107 0.707107 0.707107 -0.707107 193 467.046)" fill="#FFA45C"/>
<rect width="59.4619" height="15.416" transform="matrix(0.707107 -0.707107 -0.707107 -0.707107 203.901 477.947)" fill="#5D5D5A"/>
<circle cx="273" cy="466" r="15" fill="#FFA45C"/>
<circle cx="320" cy="466" r="15" fill="#FFA45C"/>
<circle cx="367" cy="466" r="15" fill="#FFA45C"/>
</svg>
