<svg width="734" height="578" viewBox="0 0 734 578" fill="none" xmlns="http://www.w3.org/2000/svg">
<mask id="mask0_547_1707" style="mask-type:alpha" maskUnits="userSpaceOnUse" x="0" y="0" width="367" height="437">
<rect width="367" height="437" transform="matrix(-1 0 0 1 367 0)" fill="#D9D9D9"/>
</mask>
<g mask="url(#mask0_547_1707)">
<circle cx="156.5" cy="156.5" r="156.5" transform="matrix(-1 0 0 1 524 63)" fill="#AC4B1C"/>
<circle cx="129" cy="129" r="129" transform="matrix(-1 0 0 1 309 194)" fill="#AC4B1C"/>
<circle cx="129" cy="129" r="129" transform="matrix(-1 0 0 1 441 206)" fill="#AC4B1C"/>
</g>
<mask id="mask1_547_1707" style="mask-type:alpha" maskUnits="userSpaceOnUse" x="367" y="0" width="367" height="437">
<rect x="367" width="367" height="437" fill="#D9D9D9"/>
</mask>
<g mask="url(#mask1_547_1707)">
<circle cx="366.5" cy="219.5" r="156.5" fill="#AC4B1C"/>
<circle cx="554" cy="323" r="129" fill="#AC4B1C"/>
<circle cx="422" cy="335" r="129" fill="#AC4B1C"/>
</g>
<mask id="mask2_547_1707" style="mask-type:alpha" maskUnits="userSpaceOnUse" x="192" y="105" width="353" height="248">
<path d="M366.805 352.789L192.638 105.273L544.676 107.921L366.805 352.789Z" fill="#D9D9D9"/>
</mask>
<g mask="url(#mask2_547_1707)">
<circle cx="366.711" cy="291.906" r="178.631" fill="#AC4B1C"/>
<circle cx="367.281" cy="292.477" r="142.676" fill="#FDB361"/>
<circle cx="367.281" cy="292.477" r="114.141" fill="#AC4B1C"/>
<circle cx="367.281" cy="292.477" r="85.6057" fill="#FDB361"/>
<circle cx="367.281" cy="292.477" r="57.0705" fill="#AC4B1C"/>
<circle cx="367.282" cy="292.477" r="28.5352" fill="#FDB361"/>
<circle cx="367.282" cy="292.477" r="28.5352" fill="#FDB361"/>
</g>
<circle cx="256" cy="355" r="20" fill="#AC4B1C"/>
<circle cx="256" cy="499" r="20" fill="#AC4B1C"/>
<rect x="250" y="355" width="12" height="146" fill="#AC4B1C"/>
<circle cx="149" cy="363" r="20" fill="#FDB361"/>
<rect x="143" y="363" width="12" height="74" fill="#FDB361"/>
<circle cx="202" cy="323" r="20" fill="#FDB361"/>
<rect x="196" y="323" width="12" height="114" fill="#FDB361"/>
<circle cx="256" cy="383" r="20" fill="#FDB361"/>
<rect x="250" y="383" width="12" height="54" fill="#FDB361"/>
<circle cx="483" cy="355" r="20" fill="#AC4B1C"/>
<circle cx="483" cy="499" r="20" fill="#AC4B1C"/>
<rect x="477" y="355" width="12" height="146" fill="#AC4B1C"/>
<circle cx="483" cy="363" r="20" fill="#FDB361"/>
<rect x="477" y="363" width="12" height="74" fill="#FDB361"/>
<circle cx="536" cy="323" r="20" fill="#FDB361"/>
<rect x="530" y="323" width="12" height="114" fill="#FDB361"/>
<circle cx="590" cy="383" r="20" fill="#FDB361"/>
<rect x="584" y="383" width="12" height="54" fill="#FDB361"/>
<circle cx="317" cy="394" r="20" fill="#AC4B1C"/>
<circle cx="317" cy="538" r="20" fill="#AC4B1C"/>
<rect x="311" y="394" width="12" height="146" fill="#AC4B1C"/>
<circle cx="368" cy="354" r="20" fill="#AC4B1C"/>
<circle cx="368" cy="498" r="20" fill="#AC4B1C"/>
<rect x="362" y="354" width="12" height="146" fill="#AC4B1C"/>
<circle cx="419" cy="414" r="20" fill="#AC4B1C"/>
<circle cx="419" cy="558" r="20" fill="#AC4B1C"/>
<rect x="413" y="414" width="12" height="146" fill="#AC4B1C"/>
<path d="M303 421.256V410.62H311.77V379.826H303V369.19H333.248V379.826H324.404V410.62H333.248V421.256H303Z" fill="#FFEFA0"/>
<path d="M367.884 422C363.921 422 360.304 421.331 357.034 419.992C353.764 418.653 350.915 416.769 348.487 414.339C346.059 411.909 344.176 409.058 342.838 405.785C341.501 402.512 340.832 398.917 340.832 395C340.832 391.083 341.501 387.488 342.838 384.215C344.176 380.942 346.059 378.091 348.487 375.661C350.915 373.231 353.764 371.347 357.034 370.008C360.304 368.669 363.896 368 367.81 368C371.724 368 375.316 368.669 378.586 370.008C381.856 371.347 384.705 373.231 387.133 375.661C389.561 378.091 391.419 380.942 392.707 384.215C394.045 387.488 394.714 391.083 394.714 395C394.714 398.868 394.045 402.463 392.707 405.785C391.419 409.058 389.561 411.909 387.133 414.339C384.705 416.769 381.856 418.653 378.586 419.992C375.316 421.331 371.749 422 367.884 422ZM367.81 410.099C369.841 410.099 371.699 409.727 373.384 408.983C375.118 408.24 376.605 407.198 377.843 405.86C379.131 404.471 380.122 402.86 380.816 401.025C381.51 399.19 381.856 397.182 381.856 395C381.856 392.818 381.51 390.81 380.816 388.975C380.122 387.14 379.131 385.554 377.843 384.215C376.605 382.826 375.118 381.76 373.384 381.017C371.699 380.273 369.841 379.901 367.81 379.901C365.779 379.901 363.896 380.273 362.162 381.017C360.477 381.76 358.991 382.826 357.702 384.215C356.414 385.554 355.423 387.14 354.73 388.975C354.086 390.81 353.764 392.818 353.764 395C353.764 397.182 354.086 399.215 354.73 401.099C355.423 402.934 356.414 404.521 357.702 405.86C358.991 407.198 360.477 408.24 362.162 408.983C363.896 409.727 365.779 410.099 367.81 410.099Z" fill="#FFEFA0"/>
<path d="M413.535 421.256V380.347H398.077V369.19H442V380.347H426.17V421.256H413.535Z" fill="#FFEFA0"/>
</svg>
