<svg width="710" height="656" viewBox="0 0 710 656" fill="none" xmlns="http://www.w3.org/2000/svg">
<rect x="228" y="440" width="250" height="59" fill="#8293E7"/>
<rect y="151" width="710" height="235" rx="117.5" fill="#8293E7"/>
<rect x="45" y="82" width="620" height="372" rx="186" fill="#C2D0F1"/>
<rect x="105" y="140" width="500" height="300" rx="150" fill="#8293E7"/>
<path d="M238 82C238 65.9837 250.984 53 267 53H442C458.016 53 471 65.9837 471 82H238Z" fill="#8293E7"/>
<circle cx="238" cy="290" r="68" fill="#C2D0F1"/>
<circle cx="471" cy="290" r="68" fill="#C2D0F1"/>
<ellipse cx="471" cy="295.5" rx="63" ry="62.5" fill="white"/>
<ellipse cx="238" cy="295.5" rx="63" ry="62.5" fill="white"/>
<rect x="349" y="37" width="12" height="35" fill="#8293E7"/>
<circle cx="355.5" cy="22.5" r="22.5" fill="#8293E7"/>
<rect x="21" y="469" width="668.082" height="187" rx="93.5" fill="white"/>
<rect x="46.8613" y="481.896" width="617.437" height="161.793" rx="80.8966" fill="#C2D0F1"/>
<path d="M100 599.898V522.763H129.85C134.082 522.763 137.904 523.828 141.316 525.959C144.79 528.089 147.507 531.028 149.465 534.774C151.423 538.447 152.403 542.635 152.403 547.336C152.403 552.185 151.423 556.556 149.465 560.449C147.507 564.269 144.822 567.281 141.41 569.485C137.999 571.689 134.145 572.791 129.85 572.791H115.351V599.898H100ZM136.767 599.898L119.9 565.077L136.388 562.322L155.151 599.898H136.767ZM115.351 558.466H128.428C130.071 558.466 131.492 558.062 132.692 557.253C133.956 556.372 134.904 555.16 135.535 553.617C136.23 552.074 136.578 550.311 136.578 548.328C136.578 546.344 136.199 544.618 135.441 543.149C134.682 541.606 133.577 540.431 132.124 539.623C130.734 538.815 129.028 538.41 127.007 538.41H115.351V558.466Z" fill="#8293E7"/>
<path d="M195.839 601C190.785 601 186.174 600.008 182.004 598.025C177.835 596.041 174.202 593.25 171.107 589.65C168.011 586.051 165.611 581.826 163.905 576.978C162.199 572.129 161.346 566.803 161.346 561C161.346 555.197 162.199 549.871 163.905 545.022C165.611 540.174 168.011 535.949 171.107 532.35C174.202 528.75 177.835 525.959 182.004 523.975C186.174 521.992 190.754 521 195.745 521C200.735 521 205.315 521.992 209.485 523.975C213.654 525.959 217.287 528.75 220.382 532.35C223.478 535.949 225.847 540.174 227.489 545.022C229.195 549.871 230.048 555.197 230.048 561C230.048 566.73 229.195 572.056 227.489 576.978C225.847 581.826 223.478 586.051 220.382 589.65C217.287 593.25 213.654 596.041 209.485 598.025C205.315 600.008 200.767 601 195.839 601ZM195.745 583.369C198.335 583.369 200.704 582.818 202.852 581.716C205.063 580.614 206.958 579.072 208.537 577.088C210.18 575.031 211.443 572.644 212.328 569.926C213.212 567.208 213.654 564.232 213.654 561C213.654 557.768 213.212 554.792 212.328 552.074C211.443 549.356 210.18 547.006 208.537 545.022C206.958 542.965 205.063 541.386 202.852 540.284C200.704 539.182 198.335 538.631 195.745 538.631C193.154 538.631 190.754 539.182 188.543 540.284C186.395 541.386 184.5 542.965 182.857 545.022C181.215 547.006 179.951 549.356 179.067 552.074C178.245 554.792 177.835 557.768 177.835 561C177.835 564.232 178.245 567.244 179.067 570.036C179.951 572.754 181.215 575.105 182.857 577.088C184.5 579.072 186.395 580.614 188.543 581.716C190.754 582.818 193.154 583.369 195.745 583.369Z" fill="#8293E7"/>
<path d="M242.511 599.898V522.763H271.792C276.341 522.763 280.194 523.534 283.353 525.077C286.512 526.546 288.881 528.713 290.46 531.579C292.103 534.37 292.924 537.749 292.924 541.716C292.924 546.124 291.976 549.834 290.081 552.846C288.249 555.858 285.564 557.878 282.026 558.906L281.837 556.813C284.806 557.547 287.365 558.833 289.513 560.669C291.724 562.506 293.429 564.783 294.63 567.501C295.83 570.146 296.43 573.158 296.43 576.537C296.43 580.431 295.862 583.847 294.724 586.785C293.587 589.65 291.945 592.074 289.797 594.058C287.649 596.041 285.122 597.511 282.216 598.466C279.373 599.421 276.214 599.898 272.74 599.898H242.511ZM257.673 584.251H272.171C273.94 584.251 275.425 583.92 276.625 583.259C277.889 582.598 278.868 581.643 279.563 580.394C280.258 579.072 280.605 577.492 280.605 575.656C280.605 573.966 280.226 572.534 279.468 571.358C278.773 570.183 277.762 569.301 276.436 568.713C275.109 568.052 273.53 567.722 271.698 567.722H257.673V584.251ZM257.673 553.727H269.518C271.161 553.727 272.55 553.433 273.688 552.846C274.888 552.185 275.772 551.303 276.341 550.201C276.973 549.026 277.288 547.63 277.288 546.014C277.288 543.663 276.594 541.826 275.204 540.504C273.814 539.108 271.729 538.41 268.949 538.41H257.673V553.727Z" fill="#8293E7"/>
<path d="M339.183 601C334.13 601 329.518 600.008 325.348 598.025C321.179 596.041 317.546 593.25 314.451 589.65C311.355 586.051 308.955 581.826 307.249 576.978C305.543 572.129 304.691 566.803 304.691 561C304.691 555.197 305.543 549.871 307.249 545.022C308.955 540.174 311.355 535.949 314.451 532.35C317.546 528.75 321.179 525.959 325.348 523.975C329.518 521.992 334.098 521 339.089 521C344.079 521 348.66 521.992 352.829 523.975C356.998 525.959 360.631 528.75 363.726 532.35C366.822 535.949 369.191 540.174 370.834 545.022C372.539 549.871 373.392 555.197 373.392 561C373.392 566.73 372.539 572.056 370.834 576.978C369.191 581.826 366.822 586.051 363.726 589.65C360.631 593.25 356.998 596.041 352.829 598.025C348.66 600.008 344.111 601 339.183 601ZM339.089 583.369C341.679 583.369 344.048 582.818 346.196 581.716C348.407 580.614 350.302 579.072 351.881 577.088C353.524 575.031 354.787 572.644 355.672 569.926C356.556 567.208 356.998 564.232 356.998 561C356.998 557.768 356.556 554.792 355.672 552.074C354.787 549.356 353.524 547.006 351.881 545.022C350.302 542.965 348.407 541.386 346.196 540.284C344.048 539.182 341.679 538.631 339.089 538.631C336.499 538.631 334.098 539.182 331.887 540.284C329.739 541.386 327.844 542.965 326.201 545.022C324.559 547.006 323.295 549.356 322.411 552.074C321.59 554.792 321.179 557.768 321.179 561C321.179 564.232 321.59 567.244 322.411 570.036C323.295 572.754 324.559 575.105 326.201 577.088C327.844 579.072 329.739 580.614 331.887 581.716C334.098 582.818 336.499 583.369 339.089 583.369Z" fill="#8293E7"/>
<path d="M397.39 599.898V539.292H377.68V522.763H433.684V539.292H413.5V599.898H397.39Z" fill="#8293E7"/>
<path d="M443.754 599.898V584.14H454.936V538.521H443.754V522.763H482.322V538.521H471.045V584.14H482.322V599.898H443.754Z" fill="#8293E7"/>
<path d="M526.389 601C521.398 601 516.787 600.045 512.554 598.135C508.385 596.152 504.752 593.397 501.657 589.871C498.561 586.271 496.161 582.047 494.455 577.198C492.812 572.276 491.991 566.877 491.991 561C491.991 555.27 492.875 549.981 494.644 545.132C496.413 540.284 498.845 536.096 501.941 532.57C505.1 528.971 508.795 526.179 513.028 524.196C517.324 522.212 521.999 521.22 527.053 521.22C530.211 521.22 533.307 521.698 536.339 522.653C539.371 523.608 542.183 525.04 544.773 526.95C547.426 528.787 549.7 530.991 551.596 533.562L541.74 546.675C540.414 545.059 538.992 543.663 537.476 542.488C536.023 541.239 534.412 540.284 532.643 539.623C530.875 538.961 528.979 538.631 526.958 538.631C524.431 538.631 522.03 539.182 519.756 540.284C517.545 541.312 515.586 542.818 513.881 544.802C512.238 546.712 510.943 549.062 509.996 551.854C509.048 554.646 508.574 557.768 508.574 561.22C508.574 564.6 509.048 567.685 509.996 570.477C510.943 573.195 512.27 575.545 513.976 577.529C515.681 579.512 517.734 581.018 520.135 582.047C522.599 583.075 525.315 583.59 528.284 583.59C530.306 583.59 532.233 583.259 534.065 582.598C535.897 581.937 537.571 581.055 539.087 579.953C540.666 578.778 542.056 577.455 543.257 575.986L551.027 590.311C549.448 592.368 547.331 594.205 544.678 595.821C542.088 597.437 539.182 598.723 535.96 599.678C532.801 600.559 529.611 601 526.389 601Z" fill="#8293E7"/>
<path d="M584.036 601C579.677 601 575.728 600.412 572.19 599.237C568.716 597.988 565.62 596.225 562.904 593.948C560.187 591.597 557.755 588.842 555.607 585.683L565.368 572.791C568.526 577.713 571.685 581.018 574.844 582.708C578.066 584.398 581.382 585.242 584.794 585.242C586.499 585.242 588.047 584.985 589.437 584.471C590.827 583.957 591.901 583.222 592.659 582.267C593.417 581.239 593.796 579.99 593.796 578.521C593.796 577.419 593.543 576.427 593.038 575.545C592.596 574.664 591.964 573.893 591.143 573.231C590.321 572.57 589.342 571.983 588.205 571.468C587.068 570.881 585.868 570.403 584.604 570.036C583.341 569.595 582.046 569.228 580.719 568.934C577.055 567.979 573.865 566.803 571.148 565.408C568.432 564.012 566.157 562.322 564.325 560.339C562.556 558.282 561.23 555.968 560.345 553.397C559.461 550.752 559.019 547.814 559.019 544.581C559.019 541.129 559.682 537.97 561.009 535.105C562.398 532.166 564.231 529.669 566.505 527.612C568.842 525.481 571.527 523.865 574.559 522.763C577.592 521.588 580.751 521 584.036 521C588.395 521 592.122 521.551 595.217 522.653C598.376 523.681 601.061 525.187 603.272 527.171C605.546 529.154 607.473 531.542 609.052 534.333L599.102 545.463C597.776 543.553 596.323 541.973 594.744 540.725C593.227 539.476 591.585 538.521 589.816 537.86C588.11 537.198 586.341 536.868 584.509 536.868C582.614 536.868 580.972 537.162 579.582 537.749C578.255 538.264 577.213 539.035 576.455 540.063C575.697 541.018 575.318 542.194 575.318 543.59C575.318 544.838 575.633 545.904 576.265 546.785C576.897 547.667 577.75 548.475 578.824 549.209C579.898 549.871 581.13 550.458 582.519 550.972C583.909 551.413 585.362 551.781 586.878 552.074C590.353 552.882 593.48 553.948 596.26 555.27C599.103 556.592 601.535 558.208 603.556 560.118C605.641 562.028 607.22 564.306 608.294 566.95C609.431 569.522 610 572.534 610 575.986C610 581.349 608.863 585.904 606.589 589.65C604.378 593.323 601.314 596.152 597.397 598.135C593.543 600.045 589.089 601 584.036 601Z" fill="#8293E7"/>
</svg>
